# xmcd
#
# Track frame offsets:
#	150
#	6195
#	18938
#	24323
#	36046
#	47746
#	54264
#	66317
#	77065
#	81985
#	93273
#	102266
#	114566
#	126326
#	131321
#	143089
#	153732
#	161517
#	173037
#	178152
#
# Disc length: 2564 seconds
#
# Revision: 0
# Processed by: cddbd v1.5.2PL0 Copyright (c) Steve Scherf et al.
# Submitted via: audiograbber 1.83.01
#
DISCID=fe0a0214
DTITLE=Hank Thompson - Cheyenne Frontier Days
DYEAR=1962
DGENRE=Country
TTITLE0=Rodeo Opening
TTITLE1=Annie Over
TTITLE2=Brahma Riding
TTITLE3=Drop Me Gently
TTITLE4=Forgive Me
TTITLE5=Calf Roping
TTITLE6=Rose City Chimes
TTITLE7=You're Walking On My Heart
TTITLE8=Indian Dancing
TTITLE9=Oklahoma Hills
TTITLE10=The Cowboy's Prayer (Tex Ritter)
TTITLE11=Recipe For A Heartache
TTITLE12=Darling, What More Can I Do
TTITLE13=Bull Dogging
TTITLE14=Hangover Tavern
TTITLE15=I'll Sign My Heart Away
TTITLE16=Bronc Riding
TTITLE17=Teach Me How To Lie
TTITLE18=Chuck Wagon Race
TTITLE19=Cincinnati Lou
EXTD=
EXTT0=
EXTT1=
EXTT2=
EXTT3=
EXTT4=
EXTT5=
EXTT6=
EXTT7=
EXTT8=
EXTT9=
EXTT10=
EXTT11=
EXTT12=
EXTT13=
EXTT14=
EXTT15=
EXTT16=
EXTT17=
EXTT18=
EXTT19=
PLAYORDER=
